# xmcd
#
# Track frame offsets:
#	150
#	20776
#	38922
#	54791
#	70819
#	86521
#	103633
#	116060
#	129059
#	139434
#	155529
#	169550
#	186636
#	203696
#	218690
#	233486
#
# Disc length: 3363 seconds
#
# Revision: 0
# Processed by: cddbd v1.5.2PL0 Copyright (c) Steve Scherf et al.
# Submitted via: audiograbber 1.83.01
#
DISCID=d80d2110
DTITLE=Various Artist - Dreams Of Love - The Best Of Todays Love-Hits
DYEAR=1980
DGENRE=Rock
TTITLE0=Rod Stewart  - Sailing
TTITLE1=Mike Batt  - Lady Of The Dawn
TTITLE2=Bette Midler  - The Rose
TTITLE3=Commodores  - Three Times A Lady
TTITLE4=The Manhattans  - Kiss And Say Goodbye
TTITLE5=Hot Chocolate  - I'll Put You Together Again
TTITLE6=Santana  - Samba Pa Ti
TTITLE7=Johnny Logan  - What's Another Year
TTITLE8=Thim Price  - Maybe
TTITLE9=Smokie  - Mexican Girl
TTITLE10=Bellamy Brothers  - If I Said You Had A Beautiful Body Would You Hold 
TTITLE10=It Against Me
TTITLE11=Elton John  - Daniel
TTITLE12=Jim Croce  - Operator
TTITLE13=Red Baron  - 6 O'Clock
TTITLE14=Mike Batt  - The Walls Of The World
TTITLE15=Fleetwood Mac  - Dreams
EXTD=
EXTT0=
EXTT1=
EXTT2=
EXTT3=
EXTT4=
EXTT5=
EXTT6=
EXTT7=
EXTT8=
EXTT9=
EXTT10=
EXTT11=
EXTT12=
EXTT13=
EXTT14=
EXTT15=
PLAYORDER=
